<?xml version="1.0" encoding="UTF-8"?>
<svg width="169px" height="34px" viewBox="0 0 169 34" version="1.1" xmlns="http://www.w3.org/2000/svg" xmlns:xlink="http://www.w3.org/1999/xlink">
    <!-- Generator: Sketch 64 (93537) - https://sketch.com -->
    <title>The Guild_Logo Copy 2</title>
    <desc>Created with Sketch.</desc>
    <g id="Guild_BlogPost" stroke="none" stroke-width="1" fill="none" fill-rule="evenodd">
        <g id="2.0_BlogPost_Content_-Desktop-HD" transform="translate(-165.000000, -2670.000000)" fill="#FFFFFF">
            <g id="Footer" transform="translate(0.000000, 2642.000000)">
                <g id="Logos/-Guild-/-White--4" transform="translate(165.000000, 27.000000)">
                    <path d="M1.31588393,13.7653628 C1.71364609,13.8990344 2.13790278,13.9749298 2.58074006,13.9749298 C2.97850222,13.9749298 3.3621569,13.9147605 3.72447831,13.8060455 L3.72447831,13.8060455 L3.72447831,24.1377308 C3.72447831,24.5028491 3.92198305,24.8430108 4.24060568,25.0255699 L4.24060568,25.0255699 L14.2562293,30.771055 C14.7300342,30.2216682 15.4316233,29.8719341 16.2151047,29.8719341 C17.0677471,29.8719341 17.8223253,30.2862818 18.2926894,30.9211364 C18.3009474,30.93276 18.3098936,30.9436999 18.3181517,30.9549816 C18.3511838,31.0014761 18.3821515,31.0489962 18.4120868,31.0978837 L18.4120868,31.0978837 L18.4464953,31.1536087 C18.4729899,31.1987357 18.4974199,31.2445464 18.5208177,31.2910409 C18.5335488,31.3159975 18.5455918,31.3412959 18.5576348,31.3665944 C18.5775917,31.4096701 18.5965164,31.4534296 18.6144088,31.4978729 C18.6271399,31.5296669 18.6384947,31.5614609 18.6498495,31.5935968 C18.6643011,31.6342794 18.6784086,31.6753039 18.6904515,31.7166703 C18.7021504,31.7559855 18.7114407,31.7956426 18.7214192,31.8352996 L18.7214192,31.8352996 L18.7472255,31.9470914 C18.757204,31.9966627 18.7637416,32.0469178 18.7706233,32.0975147 C18.7744083,32.1275994 18.7802577,32.1570003 18.7830104,32.1870849 C18.7909243,32.269134 18.7957415,32.3518668 18.7957415,32.435967 C18.7957415,32.5699805 18.7823222,32.7002334 18.7620212,32.8287769 L18.7620212,32.8287769 L18.7547954,32.8766388 C18.5438714,34.0810506 17.4864984,35 16.2151047,35 C15.0813449,35 14.1182512,34.2687378 13.7724459,33.2567995 L13.7724459,33.2567995 L3.03630849,27.0983342 C1.97136568,26.4877525 1.31588393,25.3588942 1.31588393,24.1377308 L1.31588393,24.1377308 Z M29.4193632,7.47937964 C30.8424984,7.47937964 32,8.62943389 32,10.0434126 C32,10.8126225 31.6559151,11.5018345 31.1143254,11.9722491 L31.1143254,11.9722491 L31.1143254,24.1377308 C31.1143254,25.3588942 30.4588437,26.4877525 29.3939009,27.0983342 L29.3939009,27.0983342 L20.1696726,32.3894726 C20.15935,31.5238551 19.8648133,30.7269536 19.3762128,30.0811592 L19.3762128,30.0811592 L28.1896037,25.0255699 C28.5082263,24.8430108 28.7057311,24.5028491 28.7057311,24.1377308 L28.7057311,24.1377308 L28.7057311,12.505568 C27.6290894,12.1972003 26.8387263,11.2112441 26.8387263,10.0434126 C26.8387263,9.47488102 27.0283171,8.95079269 27.3448752,8.52516322 C27.3496924,8.5183258 27.3548537,8.51183025 27.3596709,8.50499283 C27.4195417,8.42636248 27.4835415,8.35046711 27.5516703,8.27901605 L27.5609606,8.26910179 C27.7023795,8.12278098 27.8606585,7.99389559 28.0333891,7.88415498 C28.0512816,7.87253136 28.0702062,7.86193336 28.0884427,7.85065162 C28.1569156,7.80996896 28.2267649,7.7716794 28.2990227,7.73715042 C28.3200119,7.72723616 28.3410011,7.71629629 28.3623343,7.7067239 C28.4528286,7.66638311 28.5450434,7.62911917 28.640699,7.59937639 C28.6410431,7.59937639 28.6410431,7.59937639 28.6410431,7.59903452 L28.8283167,7.54774317 C29.0182677,7.50322515 29.216009,7.47937964 29.4193632,7.47937964 Z M25.8925272,13.0075031 L25.8925272,21.4872728 C25.8925272,22.49169 25.348529,23.427733 24.473177,23.9299416 L24.473177,23.9299416 L24.473177,23.9302834 L17.5753067,27.8826548 L16.9387497,28.229312 L16.9463195,27.5038616 L16.9463195,24.4974475 L22.6237206,21.2407838 L22.6237206,18.2583007 L17.791048,16.8918421 L25.8925272,13.0075031 Z M6.53771655,13.0024434 L9.8065232,14.5955625 L9.8065232,21.2405103 L15.397903,24.4479446 L15.397903,28.1982701 L7.95706681,23.9303518 C7.08171479,23.4278014 6.53771655,22.4917584 6.53771655,21.4873412 L6.53771655,21.4873412 L6.53771655,13.0024434 Z M14.7956856,7.27606893 C15.6576183,6.78206524 16.7724534,6.78206524 17.6343861,7.27606893 L17.6343861,7.27606893 L25.2018456,11.6380018 L24.4827081,11.9761123 L21.6753193,13.3446221 L16.2150359,10.2123995 L10.7547524,13.3446221 L7.23958095,11.6308225 L7.91501963,11.2267309 C7.92121316,11.221261 7.93876149,11.2096373 7.95768616,11.1990393 L7.95768616,11.1990393 Z M16.2150015,1 C16.8092361,1 17.4031267,1.15247449 17.935426,1.45776535 L17.935426,1.45776535 L27.2143638,6.78069776 C26.5313553,7.23812124 26.0028409,7.90306045 25.7120891,8.68184273 L25.7120891,8.68184273 L16.7311288,3.53052959 C16.5745702,3.44027563 16.3959901,3.39309742 16.2150015,3.39309742 C16.0340128,3.39309742 15.8557768,3.44027563 15.6988741,3.53052959 L15.6988741,3.53052959 L5.11998348,9.59908278 C5.14544577,9.74369424 5.16127367,9.89138254 5.16127367,10.0435152 C5.16127367,11.1467331 4.45521143,12.0865366 3.46940816,12.4475525 C3.4618383,12.4502874 3.45392434,12.4533643 3.44635447,12.4557574 C3.3682472,12.4834489 3.28910767,12.5073799 3.20790363,12.5275503 L3.20790363,12.5275503 L3.15938766,12.5398576 C3.08506532,12.5569512 3.00902255,12.5702842 2.9326357,12.5808822 L2.9326357,12.5808822 L2.87035633,12.5901127 C2.77504481,12.6007107 2.67870104,12.6075481 2.58063684,12.6075481 C2.47569094,12.6075481 2.37246547,12.5993432 2.27027225,12.5870358 C2.24274545,12.5836171 2.21590683,12.5788309 2.18872412,12.5747285 C2.11027276,12.562763 2.03319774,12.5473788 1.95715498,12.5285759 C1.9337572,12.5227641 1.91035943,12.5172942 1.88696165,12.5107986 C1.68567198,12.4543899 1.49436077,12.3761014 1.3157807,12.2759332 L1.3157807,12.2759332 L1.16239693,12.1826876 C0.463092413,11.7237461 -6.39488462e-13,10.9369382 -6.39488462e-13,10.0435152 C-6.39488462e-13,8.62953645 1.15784573,7.47948221 2.58063684,7.47948221 C2.94983995,7.47948221 3.30011839,7.55811255 3.61770876,7.69725407 L3.61770876,7.69725407 L14.4945769,1.45776535 C15.0268763,1.15247449 15.6211109,1 16.2150015,1 Z" id="Combined-Shape" fill-rule="evenodd"></path>
                    <path d="M45.1949749,25.4444444 L45.1949749,14.5925926 L49.6901869,14.5925926 L49.6901869,11 L37,11 L37,14.5925926 L41.495212,14.5925926 L41.495212,25.4444444 L45.1949749,25.4444444 Z M57.5034857,25.4444444 L57.5034857,20.0740741 L63.3861088,20.0740741 L63.3861088,25.4444444 L67.0858717,25.4444444 L67.0858717,11 L63.3861088,11 L63.3861088,16.6111111 L57.5034857,16.6111111 L57.5034857,11 L53.8222216,11 L53.8222216,25.4444444 L57.5034857,25.4444444 Z M83.1866395,25.4444444 L83.1866395,21.8703704 L75.8056124,21.8703704 L75.8056124,20.0185185 L81.8732237,20.0185185 L81.8732237,16.6666667 L75.8056124,16.6666667 L75.8056124,14.5925926 L83.1866395,14.5925926 L83.1866395,11 L72.1058495,11 L72.1058495,25.4444444 L83.1866395,25.4444444 Z M101.99386,26 C103.473765,26 104.935172,25.4444444 105.638126,24.3703704 L105.638126,25.7222222 L108.54244,25.7222222 L108.54244,17.2962963 L101.586886,17.2962963 L101.586886,20.3703704 L105.083162,20.3703704 L105.083162,20.7777778 C104.398706,21.7777778 103.288777,22.4259259 101.99386,22.4259259 C99.8109998,22.4259259 98.0721113,20.6851852 98.0721113,18.5 C98.0721113,16.3148148 99.8109998,14.5740741 101.99386,14.5740741 C103.251779,14.5740741 104.361708,15.1481481 105.083162,16.0555556 L108.098469,14.0185185 C106.711058,12.2037037 104.472701,11 101.99386,11 C97.8131279,11 94.3353507,14.3703704 94.3353507,18.5 C94.3353507,22.6296296 97.8131279,26 101.99386,26 Z M119.630029,26 C123.940253,26 126.271104,23.1296296 126.271104,19.4074074 L126.271104,11.2777778 L122.58984,11.2777778 L122.58984,19.1851852 C122.58984,21.2777778 121.572405,22.4259259 119.630029,22.4259259 C117.706153,22.4259259 116.707217,21.2777778 116.707217,19.1851852 L116.707217,11.2777778 L113.007454,11.2777778 L113.007454,19.4074074 C113.007454,23.1296296 115.301307,26 119.630029,26 Z M134.787358,25.7222222 L134.787358,11.2777778 L131.087595,11.2777778 L131.087595,25.7222222 L134.787358,25.7222222 Z M150.407156,25.7222222 L150.407156,22.1481481 L143.4886,22.1481481 L143.4886,11.2777778 L139.807335,11.2777778 L139.807335,25.7222222 L150.407156,25.7222222 Z M161.254261,25.7222222 C165.767971,25.7222222 168.080323,22.4444444 168.080323,18.5 C168.080323,14.5740741 165.767971,11.2777778 161.254261,11.2777778 L154.55769,11.2777778 L154.55769,25.7222222 L161.254261,25.7222222 Z M160.976778,22.1481481 L158.257453,22.1481481 L158.257453,14.8703704 L160.976778,14.8703704 C163.178137,14.8703704 164.343563,16.3333333 164.343563,18.5 C164.343563,20.6666667 163.178137,22.1481481 160.976778,22.1481481 Z" id="theguild©" fill-rule="nonzero"></path>
                </g>
            </g>
        </g>
    </g>
</svg>