<?xml version="1.0" encoding="UTF-8"?>
<svg width="102px" height="34px" viewBox="0 0 102 34" version="1.1" xmlns="http://www.w3.org/2000/svg" xmlns:xlink="http://www.w3.org/1999/xlink">
    <!-- Generator: Sketch 64 (93537) - https://sketch.com -->
    <title>The Guild_Logo</title>
    <desc>Created with Sketch.</desc>
    <g id="Guild_BlogPost" stroke="none" stroke-width="1" fill="none" fill-rule="evenodd">
        <g id="1.0_Blogpost_Home_-Desktop-HD" transform="translate(-30.000000, -33.000000)" fill="#FFFFFF">
            <g id="Header-Nav" transform="translate(30.000000, 24.000000)">
                <g id="Header">
                    <g id="Logos/-Guild-/-White--1" transform="translate(0.000000, 8.000000)">
                        <path d="M1.30165955,13.7091434 C1.695122,13.8422263 2.11479259,13.9177874 2.55284291,13.9177874 C2.94630536,13.9177874 3.32581282,13.8578831 3.68421763,13.7496469 L3.68421763,13.7496469 L3.68421763,24.0358308 C3.68421763,24.3993411 3.87958739,24.7380048 4.19476579,24.9197599 L4.19476579,24.9197599 L14.102123,30.6399415 C14.5708062,30.0929742 15.2648113,29.7447804 16.0398235,29.7447804 C16.883249,29.7447804 17.6296704,30.1573033 18.09495,30.7893619 L18.09495,30.7893619 L18.120137,30.8230581 C18.1528121,30.8693478 18.183445,30.9166586 18.2130568,30.9653308 C18.2246292,30.9837106 18.2362016,31.0020903 18.2470933,31.0208104 C18.2733015,31.0657386 18.2974674,31.1113476 18.3206123,31.1576373 C18.3332058,31.182484 18.3451186,31.207671 18.3570314,31.2328581 C18.3767726,31.2757441 18.3954927,31.3193109 18.4131917,31.3635584 C18.4257852,31.3952124 18.4370172,31.4268664 18.4482493,31.4588607 C18.4625447,31.4993642 18.4764996,31.5402081 18.4884124,31.5813923 C18.4999849,31.6205343 18.5091747,31.6600167 18.5190453,31.6994991 C18.5278948,31.7365989 18.5374251,31.7733584 18.5445727,31.8107986 C18.5544433,31.8601516 18.5609103,31.9101853 18.5677176,31.9605594 C18.5714616,31.9905115 18.5772478,32.019783 18.5799707,32.0497351 C18.5877991,32.1314228 18.5925643,32.2137913 18.5925643,32.2975212 C18.5925643,32.4309444 18.57929,32.5606237 18.5592084,32.6886011 C18.5568259,32.7045982 18.5547837,32.7205954 18.5520608,32.7362522 C18.3434168,33.9353597 17.2974738,34.850262 16.0398235,34.850262 C14.9183193,34.850262 13.9656365,34.1222203 13.6235692,33.1147386 L13.6235692,33.1147386 L3.00348675,26.9833956 C1.95005571,26.3755029 1.30165955,25.2516162 1.30165955,24.0358308 L1.30165955,24.0358308 Z M29.1013472,7.45084407 C30.5090987,7.45084407 31.654088,8.59583341 31.654088,10.0035849 C31.654088,10.7694071 31.3137226,11.4555838 30.7779874,11.9239267 L30.7779874,11.9239267 L30.7779874,24.0358308 C30.7779874,25.2516162 30.1295912,26.3755029 29.0761602,26.9833956 L29.0761602,26.9833956 L19.9516435,32.2512315 C19.9414325,31.3894262 19.6500797,30.5960343 19.1667607,29.953084 L19.1667607,29.953084 L27.8848811,24.9197599 C28.2000595,24.7380048 28.3954293,24.3993411 28.3954293,24.0358308 L28.3954293,24.0358308 L28.3954293,12.4548968 C27.3304258,12.1478871 26.5486064,11.1662732 26.5486064,10.0035849 C26.5486064,9.43755714 26.7361478,8.91577692 27.049284,8.49202195 C27.0540491,8.48521464 27.0591546,8.4787477 27.0639197,8.47194039 C27.1231433,8.39365634 27.1864512,8.31809521 27.2538436,8.24695883 L27.2538436,8.24695883 L27.2630335,8.23708823 C27.4029237,8.09141183 27.5594918,7.96309406 27.7303552,7.85383675 C27.7480542,7.84226432 27.7667743,7.831713 27.7848137,7.82048094 C27.8525464,7.77997745 27.9216406,7.74185652 27.9931173,7.70747961 L27.9931173,7.70747961 L28.0557446,7.67718709 C28.1452607,7.63702396 28.2364786,7.59992413 28.3311002,7.57031234 L28.3311002,7.57031234 C28.5748019,7.49304938 28.8331392,7.45084407 29.1013472,7.45084407 Z M25.6126355,12.9546213 L25.6126355,21.3970457 C25.6126355,22.3970393 25.0745177,23.3289599 24.208628,23.8289567 L24.208628,23.8289567 L24.208628,23.8292971 L17.3853221,27.7642619 L16.755646,28.1093925 L16.7631341,27.387137 L16.7631341,24.3939634 L22.3791638,21.1516422 L22.3791638,18.1822941 L17.5987312,16.8218534 L25.6126355,12.9546213 Z M6.46704546,12.9495839 L9.70051714,14.5356868 L9.70051714,21.1513699 L15.2314555,24.3446784 L15.2314555,28.0784873 L7.8710529,23.8293652 C7.00516322,23.329028 6.46704546,22.3971074 6.46704546,21.3971137 L6.46704546,21.3971137 L6.46704546,12.9495839 Z M14.6357479,7.24842874 C15.4883634,6.75660068 16.5911474,6.75660068 17.4437628,7.24842874 L17.4437628,7.24842874 L24.9294199,11.5911514 L24.2180562,11.9277728 L21.4410145,13.2902557 L16.0397554,10.1718275 L10.6384962,13.2902557 L7.16132289,11.5840037 L7.82946025,11.1816918 C7.83558682,11.1762459 7.85294546,11.1646735 7.87166556,11.1541222 L7.87166556,11.1541222 Z M16.0397213,1 C16.6275325,1 17.2150032,1.15180299 17.7415485,1.45574932 L17.7415485,1.45574932 L26.9201834,6.75523922 C26.244558,7.21064818 25.7217566,7.87265896 25.4341478,8.64801143 L25.4341478,8.64801143 L16.5502695,3.51938498 C16.3954032,3.42952851 16.2187536,3.38255808 16.0397213,3.38255808 C15.8606891,3.38255808 15.6843798,3.42952851 15.5291732,3.51938498 L15.5291732,3.51938498 L5.06463774,9.5612119 C5.08982478,9.70518649 5.1054816,9.85222436 5.1054816,10.003687 C5.1054816,11.1020462 4.40705171,12.0377108 3.43190473,12.3971367 L3.43190473,12.3971367 L3.40910024,12.4053055 C3.33183729,12.4328751 3.25355324,12.4567007 3.17322699,12.4767823 C3.15722982,12.4808666 3.14123264,12.4856318 3.12523547,12.4890354 C3.05171653,12.5060537 2.97649577,12.5193279 2.90093464,12.5298793 C2.88017235,12.5326022 2.86009079,12.5366866 2.8393285,12.5390691 C2.74504727,12.5496205 2.64974495,12.5564278 2.5527408,12.5564278 C2.44892934,12.5564278 2.34681971,12.548259 2.24573117,12.5360058 C2.21850194,12.5326022 2.19195343,12.5278371 2.16506456,12.5237527 C2.08746124,12.5118399 2.01121938,12.4965235 1.93599862,12.4778034 C1.91285377,12.4720171 1.88970892,12.4665713 1.86656407,12.4601044 C1.66745029,12.4039441 1.4782071,12.3260004 1.30155744,12.2262733 L1.30155744,12.2262733 L1.14983171,12.1334383 C0.4580865,11.6765181 -9.73443548e-13,10.8931753 -9.73443548e-13,10.003687 C-9.73443548e-13,8.59593552 1.1453297,7.45094618 2.5527408,7.45094618 C2.91795291,7.45094618 3.26444493,7.52923023 3.57860223,7.66775896 L3.57860223,7.66775896 L14.3378941,1.45574932 C14.8644395,1.15180299 15.4522506,1 16.0397213,1 Z" id="Combined-Shape" fill-rule="evenodd"></path>
                        <path d="M47.915,15 L47.915,7.382 L51.074,7.382 L51.074,4.86 L42.156,4.86 L42.156,7.382 L45.315,7.382 L45.315,15 L47.915,15 Z M56.564778,15 L56.564778,11.23 L60.698778,11.23 L60.698778,15 L63.298778,15 L63.298778,4.86 L60.698778,4.86 L60.698778,8.799 L56.564778,8.799 L56.564778,4.86 L53.977778,4.86 L53.977778,15 L56.564778,15 Z M74.613556,15 L74.613556,12.491 L69.426556,12.491 L69.426556,11.191 L73.690556,11.191 L73.690556,8.838 L69.426556,8.838 L69.426556,7.382 L74.613556,7.382 L74.613556,4.86 L66.826556,4.86 L66.826556,15 L74.613556,15 Z M47.681,30.195 C48.721,30.195 49.748,29.805 50.242,29.051 L50.242,30 L52.283,30 L52.283,24.085 L47.395,24.085 L47.395,26.243 L49.852,26.243 L49.852,26.529 C49.371,27.231 48.591,27.686 47.681,27.686 C46.147,27.686 44.925,26.464 44.925,24.93 C44.925,23.396 46.147,22.174 47.681,22.174 C48.565,22.174 49.345,22.577 49.852,23.214 L51.971,21.784 C50.996,20.51 49.423,19.665 47.681,19.665 C44.743,19.665 42.299,22.031 42.299,24.93 C42.299,27.829 44.743,30.195 47.681,30.195 Z M60.074778,30.195 C63.103778,30.195 64.741778,28.18 64.741778,25.567 L64.741778,19.86 L62.154778,19.86 L62.154778,25.411 C62.154778,26.88 61.439778,27.686 60.074778,27.686 C58.722778,27.686 58.020778,26.88 58.020778,25.411 L58.020778,19.86 L55.420778,19.86 L55.420778,25.567 C55.420778,28.18 57.032778,30.195 60.074778,30.195 Z M70.726556,30 L70.726556,19.86 L68.126556,19.86 L68.126556,30 L70.726556,30 Z M81.703334,30 L81.703334,27.491 L76.841334,27.491 L76.841334,19.86 L74.254334,19.86 L74.254334,30 L81.703334,30 Z M89.326112,30 C92.498112,30 94.123112,27.699 94.123112,24.93 C94.123112,22.174 92.498112,19.86 89.326112,19.86 L84.620112,19.86 L84.620112,30 L89.326112,30 Z M89.131112,27.491 L87.220112,27.491 L87.220112,22.382 L89.131112,22.382 C90.678112,22.382 91.497112,23.409 91.497112,24.93 C91.497112,26.451 90.678112,27.491 89.131112,27.491 Z M99.18589,30.049 C99.4262233,30.049 99.6578067,30.0180833 99.88064,29.95625 C100.103473,29.8944167 100.31114,29.8069167 100.50364,29.69375 C100.69614,29.5805833 100.872307,29.4446667 101.03214,29.286 C101.191973,29.1273333 101.328473,28.95175 101.44164,28.75925 C101.554807,28.56675 101.642307,28.3596667 101.70414,28.138 C101.765973,27.9163333 101.79689,27.6865 101.79689,27.4485 C101.79689,27.2081667 101.765973,26.9771667 101.70414,26.7555 C101.642307,26.5338333 101.554807,26.32675 101.44164,26.13425 C101.328473,25.94175 101.191973,25.7661667 101.03214,25.6075 C100.872307,25.4488333 100.69614,25.3129167 100.50364,25.19975 C100.31114,25.0865833 100.103473,24.9990833 99.88064,24.93725 C99.6578067,24.8754167 99.4262233,24.8445 99.18589,24.8445 C98.9455567,24.8445 98.71514,24.8754167 98.49464,24.93725 C98.27414,24.9990833 98.0670567,25.0865833 97.87339,25.19975 C97.6797233,25.3129167 97.5035567,25.4488333 97.34489,25.6075 C97.1862233,25.7661667 97.0503067,25.94175 96.93714,26.13425 C96.8239733,26.32675 96.7364733,26.5338333 96.67464,26.7555 C96.6128067,26.9771667 96.58189,27.2081667 96.58189,27.4485 C96.58189,27.6888333 96.6128067,27.91925 96.67464,28.13975 C96.7364733,28.36025 96.8239733,28.56675 96.93714,28.75925 C97.0503067,28.95175 97.1862233,29.1273333 97.34489,29.286 C97.5035567,29.4446667 97.6797233,29.5805833 97.87339,29.69375 C98.0670567,29.8069167 98.2747233,29.8944167 98.49639,29.95625 C98.7180567,30.0180833 98.94789,30.049 99.18589,30.049 Z M99.18589,29.559 C98.9012233,29.559 98.6358067,29.50475 98.38964,29.39625 C98.1434733,29.28775 97.92939,29.1384167 97.74739,28.94825 C97.56539,28.7580833 97.4224733,28.5346667 97.31864,28.278 C97.2148067,28.0213333 97.16289,27.7448333 97.16289,27.4485 C97.16289,27.1521667 97.2148067,26.8745 97.31864,26.6155 C97.4224733,26.3565 97.56539,26.13075 97.74739,25.93825 C97.92939,25.74575 98.1434733,25.5946667 98.38964,25.485 C98.6358067,25.3753333 98.9012233,25.3205 99.18589,25.3205 C99.3772233,25.3205 99.56039,25.3455833 99.73539,25.39575 C99.91039,25.4459167 100.073723,25.5165 100.22539,25.6075 C100.377057,25.6985 100.514723,25.80875 100.63839,25.93825 C100.762057,26.06775 100.86764,26.21125 100.95514,26.36875 C101.04264,26.52625 101.110307,26.696 101.15814,26.878 C101.205973,27.06 101.22989,27.2501667 101.22989,27.4485 C101.22989,27.7448333 101.17739,28.0213333 101.07239,28.278 C100.96739,28.5346667 100.822723,28.7580833 100.63839,28.94825 C100.454057,29.1384167 100.23764,29.28775 99.98914,29.39625 C99.74064,29.50475 99.47289,29.559 99.18589,29.559 Z M99.18589,29.076 C99.4542233,29.076 99.6904733,29.0310833 99.89464,28.94125 C100.098807,28.8514167 100.26389,28.719 100.38989,28.544 L100.38989,28.544 L100.03289,28.1765 C100.014223,28.1555 99.9920567,28.138 99.96639,28.124 C99.9407233,28.11 99.91389,28.103 99.88589,28.103 C99.8392233,28.1053333 99.8007233,28.117 99.77039,28.138 C99.7400567,28.159 99.70389,28.1811667 99.66189,28.2045 C99.61989,28.2278333 99.5668067,28.2494167 99.50264,28.26925 C99.4384733,28.2890833 99.3515567,28.299 99.24189,28.299 C99.1485567,28.299 99.0628067,28.2803333 98.98464,28.243 C98.9064733,28.2056667 98.83939,28.1508333 98.78339,28.0785 C98.72739,28.0061667 98.68364,27.9163333 98.65214,27.809 C98.62064,27.7016667 98.60489,27.578 98.60489,27.438 C98.60489,27.172 98.6649733,26.9614167 98.78514,26.80625 C98.9053067,26.6510833 99.0832233,26.5735 99.31889,26.5735 C99.4215567,26.5735 99.5038067,26.584 99.56564,26.605 C99.6274733,26.626 99.67939,26.6493333 99.72139,26.675 C99.76339,26.7006667 99.8013067,26.724 99.83514,26.745 C99.8689733,26.766 99.9092233,26.7765 99.95589,26.7765 C100.002557,26.7765 100.03989,26.76425 100.06789,26.73975 C100.09589,26.71525 100.119223,26.6936667 100.13789,26.675 L100.13789,26.675 L100.42489,26.2935 C100.30589,26.1535 100.149557,26.0368333 99.95589,25.9435 C99.7622233,25.8501667 99.5312233,25.8035 99.26289,25.8035 C99.0365567,25.8035 98.82539,25.84375 98.62939,25.92425 C98.43339,26.00475 98.2624733,26.1179167 98.11664,26.26375 C97.9708067,26.4095833 97.85589,26.58225 97.77189,26.78175 C97.68789,26.98125 97.64589,27.2 97.64589,27.438 C97.64589,27.6666667 97.6820567,27.8801667 97.75439,28.0785 C97.8267233,28.2768333 97.92939,28.4500833 98.06239,28.59825 C98.19539,28.7464167 98.3569733,28.8630833 98.54714,28.94825 C98.7373067,29.0334167 98.9502233,29.076 99.18589,29.076 Z" id="theguild©" fill-rule="nonzero"></path>
                    </g>
                </g>
            </g>
        </g>
    </g>
</svg>